<svg id="Layer_1" data-name="Layer 1" xmlns="http://www.w3.org/2000/svg" xmlns:xlink="http://www.w3.org/1999/xlink" viewBox="0 0 16 16"><defs><style>.cls-1{fill:#ea0029;}.cls-2{fill:#fff;}</style><symbol id="C_Tweaked_A_2" data-name="C Tweaked A 2" viewBox="0 0 200 200"><path class="cls-1" d="M170.33,0H29.67A29.67,29.67,0,0,0,0,29.67V170.33A29.67,29.67,0,0,0,29.67,200H170.33A29.67,29.67,0,0,0,200,170.33V29.67A29.67,29.67,0,0,0,170.33,0Z"/><path class="cls-2" d="M160.79,24.77a14.46,14.46,0,0,1,14.44,14.44V160.79a14.46,14.46,0,0,1-14.44,14.44H39.21a14.46,14.46,0,0,1-14.44-14.44V39.21A14.46,14.46,0,0,1,39.21,24.77H160.79m4.39-17.44H34.82A27.49,27.49,0,0,0,7.33,34.82V165.18a27.49,27.49,0,0,0,27.49,27.49H165.18a27.49,27.49,0,0,0,27.49-27.49V34.82A27.49,27.49,0,0,0,165.18,7.33Z"/><path class="cls-1" d="M163.3,16.67a20.06,20.06,0,0,1,20,20V163.3a20.06,20.06,0,0,1-20,20H36.7a20.06,20.06,0,0,1-20-20V36.7a20.06,20.06,0,0,1,20-20H163.3m7-16.67H29.67A29.67,29.67,0,0,0,0,29.67V170.33A29.67,29.67,0,0,0,29.67,200H170.33A29.67,29.67,0,0,0,200,170.33V29.67A29.67,29.67,0,0,0,170.33,0Z"/><path class="cls-2" d="M155.37,84.07h-7.19C138.83,60,127.51,47.49,106.71,47.49c-22.26,0-32,19.29-32,52.51,0,34.57,12.21,52.51,36.63,52.51s34.69-14.22,36.1-39.8h7.89c0,29.65-15.1,47.59-48,47.59C65,160.3,41.63,132.51,41.63,100s29.1-60.3,63.07-60.3c12.36.45,25.71,3.9,36.45,10l7-8.7h7.24Z"/></symbol></defs><title>ccc-logo-color-favicon</title><use width="200" height="200" transform="translate(0 0) scale(0.08 0.08)" xlink:href="#C_Tweaked_A_2"/></svg>